<?xml version="1.0" standalone="no"?><!DOCTYPE svg PUBLIC "-//W3C//DTD SVG 1.1//EN" "http://www.w3.org/Graphics/SVG/1.1/DTD/svg11.dtd"><svg class="icon" width="200px" height="200.00px" viewBox="0 0 1024 1024" version="1.1" xmlns="http://www.w3.org/2000/svg"><path d="M379.6 661.2h264.7v66.2H379.6zM842.9 396.5h-99.3v-66.8C743.6 201.7 639.9 98 512 98c-127.9 0-231.6 103.7-231.6 231.7v66.8h-99.3c-18.3 0-33.1 14.8-33.1 33.1v463.3c0 18.3 14.8 33.1 33.1 33.1h661.8c18.3 0 33.1-14.8 33.1-33.1V429.6c0-18.3-14.8-33.1-33.1-33.1z m-496.4-66.8c0-91.4 74.1-165.5 165.5-165.5s165.5 74.1 165.5 165.5v66.8h-331v-66.8z m463.3 530.1H214.2V462.7h595.6v397.1z" /></svg>