<?xml version="1.0" standalone="no"?><!DOCTYPE svg PUBLIC "-//W3C//DTD SVG 1.1//EN" "http://www.w3.org/Graphics/SVG/1.1/DTD/svg11.dtd"><svg class="icon" width="200px" height="200.00px" viewBox="0 0 1024 1024" version="1.1" xmlns="http://www.w3.org/2000/svg"><path d="M800.2 199.7c-94.4 0-160.6-20.8-199.4-38.2-41.7-18.7-62.6-38.2-62.7-38.2L512 98l-26 25.1c-0.2 0.2-21 20.2-63.1 39.2-39.2 17.9-106 39.1-201 39.1H166v372.2c0 41.8 5.7 104.8 55 170.4 24.7 32.9 58.7 63.8 100.9 91.6 47.6 31.5 107.2 60.1 177.1 85.2l13 5 13.1-5c69.9-25.1 129.4-53.7 176.9-85.1 42-27.7 75.9-58.6 100.9-91.6 21-27.9 36.2-58.3 45-90.3 6.7-24.5 10.1-50.7 10.1-80.1v-374h-57.8zM513.8 861.6l-0.2 0.1-1.8 0.5-1.7-0.5-0.4-0.1c-122.9-45-207.2-100.5-251-165.1-35.7-53-35.7-98.9-35.7-126.4V256.6h5.8c68.2-0.4 130.6-10.6 185.6-30.2 45.1-16.1 75.9-35.6 93.8-49.1l3.7-3.1 3.5 2.9c18 13.5 48.8 32.9 93.4 48.9 54.4 19.5 116.4 29.8 184.3 30.4h5.8l1.9 313.6c-0.1 51 0.2 186.4-287 291.6zM473 558.6L367.9 453l-45 45.3L473 649.2 701 420l-45-45.2z" /></svg>