<?xml version="1.0" standalone="no"?><!DOCTYPE svg PUBLIC "-//W3C//DTD SVG 1.1//EN" "http://www.w3.org/Graphics/SVG/1.1/DTD/svg11.dtd"><svg class="icon" width="200px" height="200.00px" viewBox="0 0 1024 1024" version="1.1" xmlns="http://www.w3.org/2000/svg"><path d="M512 582.4c133.6 0 242.2-108.7 242.2-242.2S645.6 98 512 98 269.7 206.7 269.7 340.3c0 133.5 108.7 242.1 242.3 242.1zM353.5 340.3c0-42.3 16.5-82.1 46.4-112.1 30-29.9 69.9-46.4 112.1-46.4s82.1 16.5 112.1 46.4c29.9 30 46.4 69.9 46.4 112.1s-16.5 82.1-46.4 112.1c-30 29.9-69.8 46.4-112.1 46.4s-82.1-16.5-112.1-46.4c-29.9-30.1-46.4-69.9-46.4-112.1zM741 613.2H283c-102 0-185 83-185 185v57.3c0 38.9 31.6 70.5 70.5 70.5h687c38.9 0 70.5-31.6 70.5-70.5v-57.3c0-102-83-185-185-185z m101.2 185v44H181.7v-44c0-27 10.6-52.4 29.7-71.6 19.1-19.1 44.5-29.7 71.6-29.7h458c27.1 0 52.5 10.6 71.6 29.7 19.1 19.2 29.6 44.6 29.6 71.6z" /></svg>